# xmcd CD database file
#
# Track frame offsets:
#	150
#	20233
#	39837
#	67641
#	104504
#	119171
#	131600
#	147295
#	162561
#
# Disc length: 2429 seconds
#
# Revision: 0
# Processed by: cddbd v1.5.2PL0 Copyright (c) Steve Scherf et al.
# Submitted via: CDex 1.70beta2
#
DISCID=80097b09
DTITLE=MR NO MONEY BAND - Soldi e paura
DYEAR=2012
DGENRE=Blues
TTITLE0=Madison Blues
TTITLE1=She Like To Boogie Real Low
TTITLE2=Caledonia
TTITLE3=Five Long Years
TTITLE4=Shake Your Moneymaker
TTITLE5=Easy Rider
TTITLE6=Killyng Floor
TTITLE7=You Can Have Her
TTITLE8=Creolle Belle
EXTD=YEAR: 2012
EXTT0=
EXTT1=
EXTT2=
EXTT3=
EXTT4=
EXTT5=
EXTT6=
EXTT7=
EXTT8=
PLAYORDER=
